<svg width="227" height="227" xmlns="http://www.w3.org/2000/svg" xmlns:xlink="http://www.w3.org/1999/xlink" overflow="hidden"><defs><clipPath id="clip0"><rect x="446" y="364" width="227" height="227"/></clipPath></defs><g clip-path="url(#clip0)" transform="translate(-446 -364)"><rect x="447" y="364" width="225" height="226" fill="#FFFFFF"/><path d="M446 478 446 365 559.5 365 673 365 673 478 673 591 559.5 591 446 591 446 478ZM655.976 436.565 647.346 436.565 588.017 549.57 552.878 549.57 552.878 495.27 521.431 549.57 491.398 549.57 491.398 436.341 476.269 436.341 476.269 413.966 544.371 413.966 544.371 436.341 527.347 436.341 527.347 477.062 558.255 413.971 589.774 413.971 589.815 482.824 613.912 436.346 601.118 436.346 601.118 436.346 601.118 413.966 655.976 413.966 655.976 381.949 463.019 381.949 463.019 574.051 655.976 574.051 655.976 436.565Z" fill="#25468D" fill-rule="evenodd"/></g></svg>