<?xml version="1.0" standalone="no"?>
<!DOCTYPE svg PUBLIC "-//W3C//DTD SVG 20010904//EN"
 "http://www.w3.org/TR/2001/REC-SVG-20010904/DTD/svg10.dtd">
<svg version="1.0" xmlns="http://www.w3.org/2000/svg"
 width="335.000000pt" height="335.000000pt" viewBox="0 0 335.000000 335.000000"
 preserveAspectRatio="xMidYMid meet">

<g transform="translate(0.000000,335.000000) scale(0.100000,-0.100000)"
fill="#f00" stroke="none">
<path d="M1580 3145 l0 -195 -100 0 -100 0 0 -95 0 -95 290 0 290 0 0 95 0 95
-100 0 -100 0 0 195 0 195 -90 0 -90 0 0 -195z"/>
<path d="M980 2655 l0 -95 195 0 195 0 0 95 0 95 -195 0 -195 0 0 -95z"/>
<path d="M1970 2655 l0 -95 195 0 195 0 0 95 0 95 -195 0 -195 0 0 -95z"/>
<path d="M790 2455 l0 -95 95 0 95 0 0 95 0 95 -95 0 -95 0 0 -95z"/>
<path d="M2360 2455 l0 -95 95 0 95 0 0 95 0 95 -95 0 -95 0 0 -95z"/>
<path d="M590 2165 l0 -195 95 0 95 0 0 195 0 195 -95 0 -95 0 0 -195z"/>
<path d="M1380 2265 l0 -95 290 0 290 0 0 95 0 95 -290 0 -290 0 0 -95z"/>
<path d="M2560 2165 l0 -195 95 0 95 0 0 195 0 195 -95 0 -95 0 0 -195z"/>
<path d="M1180 2065 l0 -95 95 0 95 0 0 95 0 95 -95 0 -95 0 0 -95z"/>
<path d="M1970 2065 l0 -95 95 0 95 0 0 95 0 95 -95 0 -95 0 0 -95z"/>
<path d="M390 1860 l0 -100 -195 0 -195 0 0 -90 0 -90 195 0 195 0 0 -100 0
-100 95 0 95 0 0 290 0 290 -95 0 -95 0 0 -100z"/>
<path d="M980 1670 l0 -290 95 0 95 0 0 290 0 290 -95 0 -95 0 0 -290z"/>
<path d="M1580 1865 l0 -95 90 0 90 0 0 95 0 95 -90 0 -90 0 0 -95z"/>
<path d="M2170 1670 l0 -290 95 0 95 0 0 290 0 290 -95 0 -95 0 0 -290z"/>
<path d="M2760 1670 l0 -290 95 0 95 0 0 100 0 100 195 0 195 0 0 90 0 90
-195 0 -195 0 0 100 0 100 -95 0 -95 0 0 -290z"/>
<path d="M1380 1670 l0 -90 95 0 95 0 0 90 0 90 -95 0 -95 0 0 -90z"/>
<path d="M1770 1670 l0 -90 95 0 95 0 0 90 0 90 -95 0 -95 0 0 -90z"/>
<path d="M1580 1475 l0 -95 90 0 90 0 0 95 0 95 -90 0 -90 0 0 -95z"/>
<path d="M590 1175 l0 -195 95 0 95 0 0 195 0 195 -95 0 -95 0 0 -195z"/>
<path d="M1180 1275 l0 -95 95 0 95 0 0 95 0 95 -95 0 -95 0 0 -95z"/>
<path d="M1970 1275 l0 -95 95 0 95 0 0 95 0 95 -95 0 -95 0 0 -95z"/>
<path d="M2560 1175 l0 -195 95 0 95 0 0 195 0 195 -95 0 -95 0 0 -195z"/>
<path d="M1380 1075 l0 -95 290 0 290 0 0 95 0 95 -290 0 -290 0 0 -95z"/>
<path d="M790 885 l0 -95 95 0 95 0 0 95 0 95 -95 0 -95 0 0 -95z"/>
<path d="M2360 885 l0 -95 95 0 95 0 0 95 0 95 -95 0 -95 0 0 -95z"/>
<path d="M980 685 l0 -95 195 0 195 0 0 95 0 95 -195 0 -195 0 0 -95z"/>
<path d="M1970 685 l0 -95 195 0 195 0 0 95 0 95 -195 0 -195 0 0 -95z"/>
<path d="M1380 485 l0 -95 100 0 100 0 0 -195 0 -195 90 0 90 0 0 195 0 195
100 0 100 0 0 95 0 95 -290 0 -290 0 0 -95z"/>
</g>
</svg>
